<svg width="651" height="201" viewBox="0 0 651 201" fill="none" xmlns="http://www.w3.org/2000/svg">
<path d="M580.174 133.847C578.816 134.151 577.493 134.715 576.287 135.502C573.147 137.504 571.319 140.36 572.206 141.883C573.093 143.405 576.358 143.015 579.499 141.014C580.721 140.255 581.806 139.284 582.688 138.162C583.098 137.62 583.171 136.944 582.876 136.439L581.724 134.462C581.431 133.955 580.823 133.714 580.174 133.847Z" fill="#D5D6DB"/>
<path d="M572.287 106.854C571.303 107.075 570.343 107.484 569.469 108.055C567.192 109.506 565.866 111.577 566.509 112.68C567.151 113.782 569.52 113.5 571.797 112.049C572.682 111.498 573.469 110.794 574.109 109.98C574.406 109.587 574.459 109.098 574.245 108.732L573.41 107.3C573.198 106.933 572.758 106.758 572.287 106.854Z" fill="#D5D6DB"/>
<path d="M559.473 107.985C559.254 107.96 559.02 108.018 558.817 108.148L553.469 111.556C553.022 111.84 552.843 112.388 553.07 112.779C553.122 112.869 553.193 112.945 553.279 113.004L566.461 122.089L584.294 110.724L559.473 107.985Z" fill="#029BC5"/>
<path d="M615.85 106.7L567.318 137.252L538.605 148.677L523.962 151.588L522.351 148.851L603.246 98.9043C605.657 97.4095 608.343 96.4919 611.032 96.2448C612.209 96.1429 613.372 96.1821 614.493 96.3609C615.487 96.5116 616.43 96.8023 617.294 97.2244C618.258 97.7026 620.092 97.7578 620.687 98.7106C620.689 98.7091 622.091 103.083 615.85 106.7V106.7Z" fill="#E1E6E9"/>
<path d="M567.961 133.209L546.966 166.679C546.704 167.15 546.86 167.676 547.314 167.855C547.592 167.965 547.933 167.922 548.219 167.74L553.563 164.35C554.591 163.697 555.501 162.869 556.238 161.915L596.954 114.046L567.961 133.209Z" fill="#029BC5"/>
<path d="M514.982 132.092C514.632 131.972 514.215 132.034 513.863 132.258L509.446 135.072C508.844 135.455 508.604 136.191 508.91 136.717C508.968 136.817 509.044 136.905 509.134 136.977L521.511 146.89L534.524 138.762L514.982 132.092Z" fill="#029BC5"/>
<path d="M525.659 148.677L518.998 158.006C518.9 158.14 518.923 158.308 519.049 158.382C519.14 158.435 519.264 158.425 519.365 158.358L523.493 155.742C523.525 155.721 523.554 155.696 523.578 155.667L533.312 143.832L525.659 148.677Z" fill="#029BC5"/>
<path d="M613.697 96.7631C612.542 96.5777 611.344 96.5381 610.132 96.6447C608.951 98.2958 608.196 100.15 607.943 102.024C607.924 102.4 608.227 102.671 608.62 102.629C608.742 102.616 608.864 102.573 608.973 102.504L616.581 97.6597C615.692 97.2211 614.72 96.9193 613.697 96.7631Z" fill="#029BC5"/>
<path d="M597.117 105.671L602.084 102.534L606.711 110.403L601.744 113.54L597.117 105.671Z" fill="#D5D6DB"/>
<path d="M593.992 108.783C593.394 109.163 593.154 109.891 593.458 110.411L593.95 111.253C594.274 111.76 595.014 111.849 595.602 111.452C596.162 111.074 596.387 110.387 596.117 109.88L595.625 109.038C595.321 108.519 594.591 108.405 593.992 108.783V108.783Z" fill="#3A556A"/>
<path d="M589.528 111.556C588.929 111.935 588.69 112.664 588.994 113.184L589.486 114.026C589.81 114.532 590.549 114.621 591.137 114.224C591.697 113.847 591.923 113.16 591.653 112.653L591.161 111.811C590.857 111.292 590.126 111.177 589.528 111.556V111.556Z" fill="#3A556A"/>
<path d="M585.062 114.329C584.464 114.709 584.226 115.437 584.529 115.956L585.021 116.798C585.345 117.304 586.085 117.394 586.673 116.997C587.233 116.619 587.458 115.932 587.188 115.425L586.696 114.583C586.392 114.064 585.661 113.95 585.062 114.329V114.329Z" fill="#3A556A"/>
<path d="M580.597 117.102C580 117.481 579.761 118.209 580.065 118.728L580.557 119.57C580.881 120.077 581.62 120.166 582.209 119.769C582.768 119.391 582.994 118.705 582.724 118.198L582.232 117.356C581.928 116.836 581.196 116.722 580.597 117.102V117.102Z" fill="#3A556A"/>
<path d="M576.133 119.874C575.535 120.254 575.297 120.982 575.601 121.502L576.093 122.344C576.397 122.863 577.128 122.977 577.726 122.598C578.325 122.219 578.564 121.491 578.26 120.972L577.767 120.129C577.465 119.61 576.734 119.495 576.135 119.873C576.134 119.874 576.134 119.874 576.133 119.874Z" fill="#3A556A"/>
<path d="M571.669 122.647C571.071 123.027 570.832 123.755 571.136 124.274L571.629 125.117C571.932 125.636 572.664 125.75 573.262 125.371C573.86 124.992 574.099 124.263 573.796 123.744L573.303 122.902C573 122.382 572.269 122.268 571.67 122.646C571.67 122.646 571.669 122.647 571.669 122.647Z" fill="#3A556A"/>
<path d="M567.205 125.419C566.606 125.799 566.368 126.527 566.672 127.047L567.164 127.889C567.469 128.408 568.2 128.52 568.798 128.141C569.395 127.762 569.633 127.035 569.331 126.517L568.838 125.675C568.535 125.155 567.803 125.041 567.205 125.419Z" fill="#3A556A"/>
<path d="M562.74 128.192C562.142 128.572 561.903 129.3 562.207 129.819L562.7 130.662C563.004 131.18 563.736 131.293 564.333 130.914C564.93 130.535 565.168 129.808 564.866 129.289L564.374 128.447C564.07 127.927 563.339 127.813 562.74 128.192Z" fill="#3A556A"/>
<path d="M558.276 130.964C557.677 131.344 557.439 132.072 557.743 132.592L558.235 133.434C558.54 133.953 559.271 134.065 559.869 133.686C560.466 133.307 560.704 132.58 560.402 132.062L559.909 131.219C559.605 130.7 558.874 130.586 558.276 130.964Z" fill="#3A556A"/>
<path d="M553.81 133.737C553.211 134.116 552.972 134.845 553.276 135.364L553.277 135.365L553.769 136.207C554.074 136.726 554.805 136.839 555.403 136.459C556 136.08 556.238 135.354 555.936 134.835L555.443 133.993C555.14 133.473 554.409 133.359 553.81 133.737Z" fill="#3A556A"/>
<path d="M549.347 136.509C548.748 136.888 548.509 137.616 548.813 138.136L548.814 138.137L549.306 138.979C549.611 139.498 550.342 139.61 550.94 139.231C551.537 138.852 551.775 138.125 551.473 137.607L550.98 136.764C550.677 136.245 549.945 136.131 549.347 136.509Z" fill="#3A556A"/>
<path d="M96.1744 86.8472C94.816 87.1514 93.493 87.715 92.2875 88.5024C89.1467 90.5037 87.3194 93.3604 88.2063 94.8826C89.0933 96.4047 92.3583 96.0154 95.4991 94.0141C96.7209 93.2545 97.8063 92.2837 98.6884 91.1618C99.0978 90.6197 99.1713 89.9442 98.8761 89.4393L97.7239 87.4619C97.4307 86.9554 96.8226 86.7145 96.1744 86.8472Z" fill="#D5D6DB"/>
<path d="M88.2873 59.8541C87.3024 60.0749 86.343 60.4837 85.4687 61.0547C83.1919 62.5055 81.8661 64.5769 82.5087 65.6797C83.1513 66.7825 85.5198 66.5 87.7964 65.0493C88.6823 64.4983 89.4692 63.794 90.109 62.9804C90.4055 62.5874 90.4586 62.0981 90.2446 61.732L89.4103 60.3002C89.1981 59.9331 88.7574 59.758 88.2873 59.8541Z" fill="#D5D6DB"/>
<path d="M75.4733 60.9845C75.254 60.9601 75.0202 61.0185 74.8174 61.148L69.4693 64.5562C69.0219 64.8404 68.8429 65.3878 69.0698 65.779C69.1217 65.8686 69.1927 65.9451 69.279 66.0041L82.4606 75.0891L100.294 63.7244L75.4733 60.9845Z" fill="#029BC5"/>
<path d="M131.85 59.6999L83.3181 90.252L54.6054 101.677L39.9623 104.588L38.3513 101.851L119.246 51.9044C121.657 50.4095 124.343 49.4919 127.032 49.2448C128.209 49.1429 129.372 49.1821 130.493 49.3609C131.487 49.5116 132.43 49.8023 133.294 50.2244C134.258 50.7027 136.092 50.7578 136.687 51.7106C136.689 51.7091 138.091 56.0835 131.85 59.6999V59.6999Z" fill="#E1E6E9"/>
<path d="M83.9615 86.2095L62.9662 119.679C62.704 120.15 62.8597 120.676 63.3135 120.855C63.5921 120.965 63.933 120.922 64.2194 120.74L69.5634 117.35C70.5913 116.697 71.5014 115.869 72.2375 114.915L112.954 67.0462L83.9615 86.2095Z" fill="#029BC5"/>
<path d="M30.9819 85.092C30.6317 84.9723 30.2149 85.0344 29.8631 85.2584L25.4456 88.0718C24.8437 88.4549 24.6038 89.1913 24.9097 89.717C24.9679 89.8169 25.0436 89.9049 25.1344 89.9773L37.5111 99.8897L50.5241 91.7616L30.9819 85.092Z" fill="#029BC5"/>
<path d="M41.6596 101.677L34.9981 111.006C34.9004 111.14 34.9234 111.308 35.0494 111.382C35.1402 111.435 35.2642 111.425 35.365 111.358L39.4932 108.742C39.5253 108.721 39.5543 108.696 39.5783 108.667L49.3119 96.832L41.6596 101.677Z" fill="#029BC5"/>
<path d="M129.697 49.7631C128.542 49.5777 127.345 49.5381 126.132 49.6447C124.951 51.2958 124.196 53.1505 123.943 55.0239C123.924 55.4003 124.228 55.6711 124.62 55.6289C124.743 55.6157 124.864 55.5728 124.973 55.504L132.581 50.6597C131.692 50.2211 130.72 49.9193 129.697 49.7631Z" fill="#029BC5"/>
<path d="M113.117 58.6712L118.084 55.5343L122.711 63.4033L117.744 66.5403L113.117 58.6712Z" fill="#D5D6DB"/>
<path d="M109.992 61.7834C109.393 62.1626 109.154 62.8914 109.458 63.4111L109.95 64.2531C110.274 64.7595 111.013 64.8486 111.602 64.4519C112.162 64.0741 112.387 63.3874 112.117 62.8804L111.625 62.0384C111.321 61.5192 110.59 61.4049 109.992 61.7834V61.7834Z" fill="#3A556A"/>
<path d="M105.528 64.5559C104.929 64.9351 104.69 65.6639 104.994 66.1836L105.486 67.0255C105.81 67.532 106.549 67.6211 107.137 67.2244C107.697 66.8466 107.923 66.1599 107.653 65.6529L107.161 64.8109C106.857 64.2918 106.126 64.1775 105.528 64.5559V64.5559Z" fill="#3A556A"/>
<path d="M101.062 67.3293C100.464 67.7089 100.225 68.4368 100.529 68.9561L101.021 69.798C101.345 70.3045 102.084 70.3935 102.673 69.9968C103.233 69.6191 103.458 68.9324 103.188 68.4254L102.696 67.5834C102.392 67.0638 101.66 66.95 101.062 67.3293V67.3293Z" fill="#3A556A"/>
<path d="M96.5973 70.1016C95.9994 70.4813 95.7611 71.2092 96.0647 71.7285L96.557 72.5705C96.8808 73.0769 97.6201 73.166 98.2084 72.7693C98.7682 72.3915 98.9937 71.7048 98.7239 71.1978L98.2316 70.3558C97.9274 69.8363 97.1959 69.7225 96.5973 70.1016V70.1016Z" fill="#3A556A"/>
<path d="M92.1334 72.8743C91.5351 73.2541 91.2966 73.9824 91.6004 74.5018L92.093 75.3442C92.3967 75.8635 93.1279 75.9772 93.7263 75.5982C94.3247 75.2192 94.5636 74.491 94.2599 73.9717L93.7673 73.1294C93.4644 72.6097 92.7334 72.4952 92.1346 72.8735C92.1341 72.8738 92.1339 72.874 92.1334 72.8743Z" fill="#3A556A"/>
<path d="M87.669 75.6468C87.0708 76.0266 86.8323 76.7548 87.1361 77.2743L87.6287 78.1166C87.9323 78.6359 88.6636 78.7496 89.2619 78.3706C89.8603 77.9917 90.0992 77.2635 89.7956 76.7442L89.303 75.9019C89 75.3821 88.269 75.2676 87.6703 75.646C87.6698 75.6463 87.6693 75.6466 87.669 75.6468Z" fill="#3A556A"/>
<path d="M83.2044 78.4193C82.6062 78.7991 82.3677 79.5273 82.6714 80.0468L83.164 80.8891C83.4685 81.4079 84.2001 81.5205 84.7978 81.141C85.3945 80.7621 85.6329 80.0355 85.3306 79.5169L84.838 78.6745C84.5345 78.1549 83.8033 78.0406 83.2044 78.4193Z" fill="#3A556A"/>
<path d="M78.7398 81.1918C78.1416 81.5716 77.9031 82.2998 78.2068 82.8193L78.6994 83.6617C79.0039 84.1805 79.7355 84.293 80.3332 83.9135C80.9299 83.5347 81.1683 82.808 80.866 82.2894L80.3734 81.447C80.0699 80.9274 79.3387 80.8131 78.7398 81.1918Z" fill="#3A556A"/>
<path d="M74.2756 83.9642C73.6773 84.344 73.4388 85.0722 73.7426 85.5917L74.2352 86.434C74.5396 86.9528 75.2712 87.0654 75.869 86.6859C76.4657 86.3071 76.7041 85.5804 76.4018 85.0618L75.9092 84.2195C75.6054 83.7 74.8742 83.5857 74.2756 83.9642Z" fill="#3A556A"/>
<path d="M69.8097 86.7374C69.2114 87.1164 68.9725 87.8446 69.2762 88.3639L69.2768 88.365L69.7694 89.2073C70.0738 89.7261 70.8054 89.8387 71.4031 89.4592C71.9999 89.0803 72.2382 88.3537 71.936 87.835L71.4434 86.9927C71.1399 86.473 70.4086 86.3587 69.8097 86.7374Z" fill="#3A556A"/>
<path d="M65.3465 89.5091C64.7481 89.8881 64.5092 90.6163 64.8129 91.1355L64.8135 91.1366L65.3061 91.9789C65.6106 92.4977 66.3422 92.6103 66.9399 92.2308C67.5366 91.852 67.775 91.1253 67.4728 90.6067L66.9802 89.7644C66.6764 89.2449 65.9451 89.1306 65.3465 89.5091Z" fill="#3A556A"/>
</svg>
